<?xml version="1.0" encoding="UTF-8"?>
<!DOCTYPE svg PUBLIC "-//W3C//DTD SVG 1.1//EN" "http://www.w3.org/Graphics/SVG/1.1/DTD/svg11.dtd">
<!-- Creator: CorelDRAW 2021 (64 Bit) -->
<svg xmlns="http://www.w3.org/2000/svg" xml:space="preserve" width="18.6266mm" height="7.112mm" version="1.1" style="shape-rendering:geometricPrecision; text-rendering:geometricPrecision; image-rendering:optimizeQuality; fill-rule:evenodd; clip-rule:evenodd"
viewBox="0 0 1862.66 711.2"
 xmlns:xlink="http://www.w3.org/1999/xlink"
 xmlns:xodm="http://www.corel.com/coreldraw/odm/2003">
 <defs>
  <style type="text/css">
   <![CDATA[
    .fil3 {fill:#E6E7E8}
    .fil0 {fill:#BDBFC1}
    .fil1 {fill:#D2D3D5;fill-rule:nonzero}
    .fil2 {fill:#D2D3D5;fill-rule:nonzero}
   ]]>
  </style>
 </defs>
 <g id="Camada_x0020_1">
  <metadata id="CorelCorpID_0Corel-Layer"/>
  <path class="fil0" d="M669.69 207.49c138.07,-71.1 330.88,-142.08 498.48,-173.73 207.08,-39.1 379.02,-28.39 417.55,58.11 16.35,36.68 3.45,80.92 -32.05,128.32 16.94,-33.38 20.72,-64.42 8.71,-91.38 -38.54,-86.5 -210.48,-97.21 -417.55,-58.11 -167.61,31.65 -360.42,102.63 -498.49,173.73 -138.07,71.11 -215.21,130.13 -271.24,188.08 -13.05,13.5 -24.53,26.86 -34.31,39.98 12.58,-24.59 32.1,-50.49 57.66,-76.92 56.03,-57.95 133.17,-116.97 271.24,-188.08z"/>
  <path class="fil1" d="M392.02 416.86c0,16.44 -15.1,28.15 -45.31,35.14 -18.28,4.31 -39.45,6.47 -63.49,6.47l-186.77 0c-4.11,0 -6.16,-1.34 -6.16,-4.01l0 -28.35c0,-2.67 2.05,-4.01 6.16,-4.01l143.63 0 -113.73 -70.27c-30.62,-18.7 -45.92,-37.29 -45.92,-55.78 0,-11.92 6.26,-22.09 18.8,-30.52 9.45,-6.57 21.06,-11.5 34.82,-14.79 11.1,-2.47 22.81,-3.7 35.14,-3.7l198.17 0c3.91,0 5.86,1.34 5.86,4.01l0 28.66c0,2.47 -1.95,3.7 -5.86,3.7l-145.16 0 113.42 71.19c37.6,23.43 56.4,44.18 56.4,62.26zm373.85 -113.42c0,8.63 -2.26,16.85 -6.78,24.66 -12.95,22.39 -37.6,33.59 -73.97,33.59l-123.59 0c-4.11,0 -6.16,-1.33 -6.16,-4l0 -28.67c0,-2.67 2.05,-4 6.16,-4l41.61 0c7.81,0 14.79,-1.54 20.96,-4.63 7.6,-3.9 11.4,-9.34 11.4,-16.33 0,-7.19 -3.8,-12.64 -11.4,-16.34 -5.96,-2.87 -12.95,-4.31 -20.96,-4.31l-66.27 0 0 171.05c0,2.67 -1.95,4.01 -5.85,4.01l-116.81 0c-3.9,0 -5.86,-1.34 -5.86,-4.01l0 -203.41c0,-2.67 1.96,-4.01 5.86,-4.01l278.92 0c32.26,0 54.45,10.79 66.58,32.36 4.1,7.61 6.16,15.62 6.16,24.04zm394.5 151.64c0,2.26 -2.16,3.39 -6.47,3.39l-144.86 0c-1.85,0 -3.39,-0.51 -4.62,-1.54l-155.95 -135.61 -113.11 100.78 171.97 0c3.91,0 5.86,1.34 5.86,4.01l0 28.35c0,2.67 -1.95,4.01 -5.86,4.01l-248.72 0c-4.31,0 -6.47,-1.13 -6.47,-3.39 0,-1.03 0.52,-2.06 1.54,-3.08l232.39 -203.42c1.03,-1.02 2.57,-1.54 4.62,-1.54l34.52 0c2.06,0 3.7,0.52 4.93,1.54l228.69 203.42c1.03,1.02 1.54,2.05 1.54,3.08zm304.2 -0.62c0,2.67 -1.96,4.01 -5.86,4.01l-219.75 0c-30,0 -54.55,-10.17 -73.66,-30.51 -18.9,-19.73 -28.35,-44.8 -28.35,-75.2 0,-30.82 9.34,-56.15 28.04,-75.98 18.7,-19.82 43.36,-29.74 73.97,-29.74l219.75 0c3.9,0 5.86,1.34 5.86,4.01l0 28.66c0,2.47 -1.96,3.7 -5.86,3.7l-147.63 0c-15,0 -25.17,4.52 -30.51,13.56 -3.91,6.58 -5.86,18.18 -5.86,34.83l0 33.59c0,17.26 1.85,30 5.55,38.22 5.55,12.33 15.82,18.49 30.82,18.49l147.63 0c3.9,0 5.86,1.34 5.86,4.01l0 28.35zm343.64 -96.77c0,2.67 -1.95,4 -5.85,4l-155.65 0c-4.11,0 -6.16,-1.33 -6.16,-4l0 -28.67c0,-2.67 2.05,-4 6.16,-4l155.65 0c3.9,0 5.85,1.33 5.85,4l0 28.67zm0 96.77c0,2.67 -1.95,4.01 -5.85,4.01l-219.75 0c-30.21,0 -54.86,-10.17 -73.97,-30.51 -18.7,-19.73 -28.05,-44.8 -28.05,-75.2 0,-30.82 9.35,-56.15 28.05,-75.98 18.7,-19.82 43.35,-29.74 73.97,-29.74l219.75 0c3.9,0 5.85,1.34 5.85,4.01l0 28.66c0,2.47 -1.95,3.7 -5.85,3.7l-147.63 0c-15.21,0 -25.38,4.52 -30.51,13.56 -3.91,6.58 -5.86,18.18 -5.86,34.83l0 33.59c0,17.26 1.85,30 5.55,38.22 5.54,12.33 15.82,18.49 30.82,18.49l147.63 0c3.9,0 5.85,1.34 5.85,4.01l0 28.35z"/>
  <path class="fil2" d="M398.12 410.76c0,16.44 -15.1,28.15 -45.31,35.14 -18.29,4.31 -39.45,6.47 -63.49,6.47l-186.77 0c-4.11,0 -6.16,-1.33 -6.16,-4.01l0 -28.35c0,-2.67 2.05,-4.01 6.16,-4.01l143.62 0 -113.72 -70.27c-30.62,-18.69 -45.93,-37.29 -45.93,-55.78 0,-11.92 6.27,-22.09 18.8,-30.51 9.46,-6.58 21.07,-11.51 34.83,-14.8 11.1,-2.46 22.81,-3.7 35.14,-3.7l198.17 0c3.9,0 5.86,1.34 5.86,4.01l0 28.66c0,2.47 -1.96,3.7 -5.86,3.7l-145.16 0 113.42 71.2c37.6,23.42 56.4,44.17 56.4,62.25zm373.85 -113.42c0,8.64 -2.26,16.85 -6.78,24.66 -12.95,22.4 -37.61,33.59 -73.97,33.59l-123.59 0c-4.11,0 -6.17,-1.33 -6.17,-4l0 -28.66c0,-2.67 2.06,-4.01 6.17,-4.01l41.61 0c7.8,0 14.79,-1.54 20.95,-4.62 7.61,-3.91 11.41,-9.35 11.41,-16.34 0,-7.19 -3.8,-12.63 -11.41,-16.33 -5.96,-2.88 -12.94,-4.32 -20.95,-4.32l-66.27 0 0 171.05c0,2.68 -1.95,4.01 -5.85,4.01l-116.81 0c-3.91,0 -5.86,-1.33 -5.86,-4.01l0 -203.41c0,-2.67 1.95,-4.01 5.86,-4.01l278.92 0c32.26,0 54.45,10.79 66.57,32.37 4.11,7.6 6.17,15.61 6.17,24.03zm394.5 151.64c0,2.26 -2.16,3.39 -6.48,3.39l-144.85 0c-1.85,0 -3.39,-0.51 -4.62,-1.54l-155.95 -135.61 -113.11 100.78 171.97 0c3.91,0 5.86,1.34 5.86,4.01l0 28.35c0,2.68 -1.95,4.01 -5.86,4.01l-248.72 0c-4.31,0 -6.47,-1.13 -6.47,-3.39 0,-1.03 0.51,-2.05 1.54,-3.08l232.39 -203.42c1.02,-1.02 2.57,-1.54 4.62,-1.54l34.52 0c2.05,0 3.7,0.52 4.93,1.54l228.69 203.42c1.02,1.03 1.54,2.05 1.54,3.08zm304.19 -0.62c0,2.68 -1.95,4.01 -5.85,4.01l-219.75 0c-30,0 -54.55,-10.17 -73.66,-30.51 -18.9,-19.73 -28.36,-44.79 -28.36,-75.2 0,-30.82 9.35,-56.15 28.05,-75.97 18.7,-19.83 43.35,-29.75 73.97,-29.75l219.75 0c3.9,0 5.85,1.34 5.85,4.01l0 28.66c0,2.47 -1.95,3.7 -5.85,3.7l-147.63 0c-15,0 -25.17,4.52 -30.51,13.56 -3.91,6.58 -5.86,18.19 -5.86,34.83l0 33.59c0,17.26 1.85,30 5.55,38.22 5.55,12.33 15.82,18.49 30.82,18.49l147.63 0c3.9,0 5.85,1.34 5.85,4.01l0 28.35zm343.65 -96.77c0,2.67 -1.95,4 -5.86,4l-155.64 0c-4.11,0 -6.16,-1.33 -6.16,-4l0 -28.66c0,-2.67 2.05,-4.01 6.16,-4.01l155.64 0c3.91,0 5.86,1.34 5.86,4.01l0 28.66zm0 96.77c0,2.68 -1.95,4.01 -5.86,4.01l-219.75 0c-30.2,0 -54.86,-10.17 -73.96,-30.51 -18.7,-19.73 -28.05,-44.79 -28.05,-75.2 0,-30.82 9.35,-56.15 28.05,-75.97 18.69,-19.83 43.35,-29.75 73.96,-29.75l219.75 0c3.91,0 5.86,1.34 5.86,4.01l0 28.66c0,2.47 -1.95,3.7 -5.86,3.7l-147.63 0c-15.2,0 -25.37,4.52 -30.51,13.56 -3.9,6.58 -5.85,18.19 -5.85,34.83l0 33.59c0,17.26 1.85,30 5.54,38.22 5.55,12.33 15.83,18.49 30.82,18.49l147.63 0c3.91,0 5.86,1.34 5.86,4.01l0 28.35z"/>
  <path class="fil3" d="M1553.67 220.19c-37.41,73.7 -138.98,158.78 -276.44,236.44 -167.28,94.52 -384.64,170.79 -547.02,202.02 -162.38,31.23 -254.25,26.87 -325.11,8.94 -61.99,-15.68 -99.08,-46.58 -103.62,-88.99 -3.37,-31.59 10.75,-67.82 39.31,-106.11 -12.6,24.63 -18.23,47.95 -15.96,69.17 4.53,42.41 41.62,73.31 103.62,88.99 70.86,17.93 162.73,22.29 325.11,-8.94 162.38,-31.24 379.73,-107.5 547.01,-202.02 115.01,-64.98 204.9,-135.15 253.1,-199.5z"/>
 </g>
</svg>
